# xmcd
#
# Track frame offsets:
#	150
#	12526
#	26458
#	39632
#	51531
#	65085
#	78806
#	89496
#	105003
#	115943
#
# Disc length: 1703 seconds
#
# Revision: 0
# Processed by: cddbd v1.5.1PL0 Copyright (c) Steve Scherf et al.
# Submitted via: dBpowerAMP V4.0
#
DISCID=7b06a50a
DTITLE=Margie LeBlanc - From The Heart
DYEAR=2004
DGENRE=Country
TTITLE0=One Little Reason
TTITLE1=Your're The Song I've Been Dying To Sing
TTITLE2=You Bring Out The Happiness In Me
TTITLE3=Friday Night Friend
TTITLE4=Through The Eyes Of This Fool
TTITLE5=It Must Have Got A Memory In My Eye
TTITLE6=When The Lights Go Out And The Dreams Come On
TTITLE7=Rings And Dreams
TTITLE8=Lt's Don't Talk About Good-bye Tonight
TTITLE9=Should I Call This A Dream
EXTD=\n
EXTT0=
EXTT1=
EXTT2=
EXTT3=
EXTT4=
EXTT5=
EXTT6=
EXTT7=
EXTT8=
EXTT9=
PLAYORDER=
